<?xml version="1.0" encoding="UTF-8" standalone="no"?>
<!-- Created with Inkscape (http://www.inkscape.org/) -->

<svg
   xmlns:dc="http://purl.org/dc/elements/1.1/"
   xmlns:cc="http://creativecommons.org/ns#"
   xmlns:rdf="http://www.w3.org/1999/02/22-rdf-syntax-ns#"
   xmlns:svg="http://www.w3.org/2000/svg"
   xmlns="http://www.w3.org/2000/svg"
   xmlns:sodipodi="http://sodipodi.sourceforge.net/DTD/sodipodi-0.dtd"
   xmlns:inkscape="http://www.inkscape.org/namespaces/inkscape"
   width="92.226189mm"
   height="92.226189mm"
   viewBox="0 0 92.226189 92.226189"
   version="1.1"
   id="svg8"
   inkscape:version="0.92.1 r"
   sodipodi:docname="circlelogo.svg">
  <defs
     id="defs2" />
  <sodipodi:namedview
     id="base"
     pagecolor="#ffffff"
     bordercolor="#666666"
     borderopacity="1.0"
     inkscape:pageopacity="0.0"
     inkscape:pageshadow="2"
     inkscape:zoom="0.35"
     inkscape:cx="24.012738"
     inkscape:cy="-23.797193"
     inkscape:document-units="mm"
     inkscape:current-layer="layer1"
     showgrid="false"
     inkscape:window-width="1260"
     inkscape:window-height="787"
     inkscape:window-x="0"
     inkscape:window-y="23"
     inkscape:window-maximized="0"
     fit-margin-top="0"
     fit-margin-left="0"
     fit-margin-right="0"
     fit-margin-bottom="0" />
  <metadata
     id="metadata5">
    <rdf:RDF>
      <cc:Work
         rdf:about="">
        <dc:format>image/svg+xml</dc:format>
        <dc:type
           rdf:resource="http://purl.org/dc/dcmitype/StillImage" />
        <dc:title></dc:title>
      </cc:Work>
    </rdf:RDF>
  </metadata>
  <g
     inkscape:label="Layer 1"
     inkscape:groupmode="layer"
     id="layer1"
     transform="translate(-41.199398,-37.330357)">
    <circle
       style="fill:#f9cf78;fill-opacity:1;stroke:none;stroke-width:2.39104915;stroke-linecap:round;stroke-miterlimit:4;stroke-dasharray:none;stroke-opacity:1;paint-order:normal"
       id="path5138"
       cx="87.312492"
       cy="83.443451"
       r="46.113094" />
    <g
       id="g4575"
       transform="translate(85.003415,-54.228471)">
      <path
         sodipodi:nodetypes="ccaaaccscscsc"
         inkscape:connector-curvature="0"
         id="path4563"
         d="m -20.989928,144.10255 c -12.237331,-2.82699 -8.645813,6.06016 -9.087165,6.28083 -5.064799,2.53241 1.940432,8.05518 5.211757,9.75534 18.2571505,9.48855 50.256439,9.89528 61.271538,-7.48355 0.231792,-0.3657 -0.152481,-0.8836 -0.407887,-1.23322 -0.436797,-0.59792 -1.666178,-1.17492 -1.797088,-1.30583 0.646014,-1.24143 3.977141,-2.63053 -2.53906,-6.81538 -1.43653,-0.71826 -4.810848,1.87336 -4.810848,0.26727 0,-2.06641 -5.4385,-6.50757 -7.08265,-8.15172 -0.72589,-0.7259 -6.5481,-3.00571 -6.5481,-3.4745 0,-3.32113 -10.6104583,18.38828 -10.8244133,18.17433 -5.35446,-5.35446 -8.461552,-22.67535 -16.8379797,-14.29893 -2.715469,2.71547 -5.240213,4.36168 -6.548104,8.28536 z"
         style="fill:#e6ecf8;fill-opacity:1;stroke:none;stroke-width:0.26458332px;stroke-linecap:butt;stroke-linejoin:miter;stroke-opacity:1" />
      <path
         sodipodi:nodetypes="cscccccscscccccccsssccscsccscscscccsscccccscsccssccsccscccc"
         inkscape:connector-curvature="0"
         d="m 21.715431,121.29723 c -0.20237,-1.72184 -0.84473,-3.34456 -1.32396,-3.34456 -0.77766,0 -2.15271,2.34582 -1.87955,3.20648 0.22362,0.70455 1.6469,1.55379 2.60613,1.55503 l 0.76403,9.9e-4 z m -35.016504,2.04248 c 1.134062,-0.58098 1.215927,-0.76036 0.931077,-2.04019 -0.326356,-1.46632 -0.769742,-1.90674 -1.516965,-1.50684 -0.709875,0.37991 -2.13923,2.32378 -2.13923,2.90927 0,1.0833 1.273619,1.38137 2.725118,0.63776 z m 17.9342021,33.05103 -1.697971,-0.96529 -1.60932,0.85025 c -0.88512701,0.46763 -1.75814901,0.84688 -1.94005001,0.84278 -0.75595899,-0.0171 -0.233341,-0.57818 1.223476,-1.31358 0.85481301,-0.43151 1.63111401,-0.98499 1.72511801,-1.22995 0.336642,-0.87728 0.5127768,-2.35297 -0.5141982,-3.4773 -0.62575,-0.68507 -1.22178594,-1.57311 -1.28156859,-1.98153 C 0.30238019,147.50223 -5.5633699,138.26178 -8.5844939,134.8574 l -0.97581,-1.0996 -1.1824231,0.59601 c -1.97181,0.99391 -4.558731,2.81072 -5.723154,4.0194 -0.605632,0.62865 -1.752704,2.2741 -2.549044,3.65655 -0.796343,1.38244 -1.685557,2.77156 -1.976033,3.08692 l -0.528137,0.57338 -1.932009,-0.50724 c -1.062605,-0.27898 -2.327014,-0.50723 -2.809798,-0.50723 -1.007508,0 -1.024046,-0.0584 -0.458911,-1.62038 0.230383,-0.63676 0.810167,-2.46743 1.288409,-4.06816 0.478242,-1.60073 1.071079,-3.38667 1.317417,-3.96875 0.975476,-2.305 1.751798,-6.12559 2.016072,-9.92188 0.510808,-7.33775 2.129423,-11.62698 4.544064,-13.54035 0,0 2.356667,-2.18969 3.292514,-1.9548 1.391626,0.34927 3.186288,3.16357 4.3028831,6.55801 0.740108,2.24993 1.668108,3.11631 3.337957,3.11631 0.639654,0 2.862942,-0.30231 4.940636,-0.6718 4.070887,-0.72395 6.513732,-0.73742 13.1023019,-0.0722 3.59833,0.36329 3.66243,0.32723 4.7193,-2.65434 1.17161,-3.30528 1.55604,-4.06551 2.86395,-5.66359 1.71513,-2.09565 2.14445,-2.06256 4.45696,0.34348 2.04584,2.12857 3.39679,4.56964 4.21947,7.62428 0.4394,1.63146 0.5798,3.21685 0.72957,8.23797 l 0.18546,6.21771 1.60593,4.89479 c 2.09911,6.39796 2.13236,6.56341 1.34846,6.70946 -4.93958,0.92031 -4.79736,0.92783 -5.54027,-0.29331 -0.86608,-1.42362 -3.17946,-4.27211 -4.37175,-5.38299 -1.19669,-1.11498 -2.81226,-2.2111 -5.90943,-4.00939 l -2.24268,-1.30215 -0.5853,0.73404 c -0.98708,1.23792 -3.6555899,5.86005 -5.6928369,9.86059 -1.729769,3.39674 -1.7885819,3.92207 -2.2093082,5.11839 -0.2058586,1.20118 0.2229052,1.09998 -0.7559518,2.03115 -0.872151,0.82966 -0.955622,1.50389 -0.955622,2.35761 0,1.17072 0.426313,1.66212 2.337504,2.69432 1.126168,0.60823 1.478931,1.08323 0.923486,1.24349 -0.120055,0.0346 -0.982369,-0.3714 -1.916253,-0.90231 z"
         style="fill:#7187a5;stroke-width:0.26458335"
         id="path4552" />
      <path
         id="path4550"
         d="m 17.845751,152.94341 c -2.31237,-1.16178 -2.80701,-4.00205 -1.00994,-5.79912 2.30292,-2.30292 5.76519,-0.76649 5.76519,2.55838 0,1.51357 -0.77924,2.82163 -1.9797,3.32322 -1.182,0.49387 -1.65646,0.47977 -2.77555,-0.0825 z"
         style="fill:#292d36;fill-opacity:1;stroke-width:0.26458335"
         inkscape:connector-curvature="0" />
      <path
         id="path4500"
         d="m -14.358171,152.62473 c -2.189554,-1.33505 -2.541947,-4.07441 -0.766328,-5.95712 0.747913,-0.79302 1.055253,-0.93354 2.039966,-0.9327 1.461114,10e-4 2.655602,0.71326 3.2310811,1.92599 0.898115,1.89264 0.271751,4.08708 -1.4265541,4.99789 -1.155877,0.61991 -2.021337,0.61033 -3.078165,-0.0341 z"
         style="fill:#292d36;fill-opacity:1;stroke-width:0.26458335"
         inkscape:connector-curvature="0" />
      <path
         inkscape:connector-curvature="0"
         id="path4513"
         d="m 3.8333908,148.88799 c -6.835035,-0.69532 -1.322473,3.93309 -0.73233,3.63802 1.252268,-0.62613 3.461554,-3.63802 0.73233,-3.63802 z"
         style="fill:#292d36;fill-opacity:1;stroke:none;stroke-width:0.26458332px;stroke-linecap:butt;stroke-linejoin:miter;stroke-opacity:1" />
      <path
         inkscape:connector-curvature="0"
         id="path4559"
         d="m -13.50522,119.41907 c -9.083185,6.77075 6.8054543,4.76382 0,0 z"
         style="fill:#f0b7c7;fill-opacity:1;stroke:none;stroke-width:0.26458332px;stroke-linecap:butt;stroke-linejoin:miter;stroke-opacity:1" />
      <path
         inkscape:connector-curvature="0"
         id="path4561"
         d="m 20.606421,117.62972 c -1.08803,-0.0708 -2.98307,2.41945 -2.43883,3.50792 0.33798,0.67597 2.65828,2.59637 3.64154,2.10474 1.50198,-0.75098 -0.0861,-5.3335 -1.20271,-5.61266 z"
         style="fill:#f0b7c7;fill-opacity:1;stroke:none;stroke-width:0.26458332px;stroke-linecap:butt;stroke-linejoin:miter;stroke-opacity:1" />
    </g>
  </g>
</svg>
